<mxfile host="app.diagrams.net" agent="Mozilla/5.0 (Windows NT 10.0; Win64; x64) AppleWebKit/537.36 (KHTML, like Gecko) Chrome/131.0.0.0 Safari/537.36 Edg/131.0.0.0" version="24.9.1">
  <diagram id="C5RBs43oDa-KdzZeNtuy" name="Page-1">
    <mxGraphModel dx="1426" dy="789" grid="1" gridSize="10" guides="1" tooltips="1" connect="1" arrows="1" fold="1" page="1" pageScale="1" pageWidth="827" pageHeight="1169" math="0" shadow="0">
      <root>
        <mxCell id="WIyWlLk6GJQsqaUBKTNV-0" />
        <mxCell id="WIyWlLk6GJQsqaUBKTNV-1" parent="WIyWlLk6GJQsqaUBKTNV-0" />
        <mxCell id="9MLpdoG-Xq3LA8RY7R3_-38" style="edgeStyle=orthogonalEdgeStyle;rounded=0;orthogonalLoop=1;jettySize=auto;html=1;entryX=0;entryY=0.5;entryDx=0;entryDy=0;" edge="1" parent="WIyWlLk6GJQsqaUBKTNV-1" source="WIyWlLk6GJQsqaUBKTNV-3" target="9MLpdoG-Xq3LA8RY7R3_-1">
          <mxGeometry relative="1" as="geometry" />
        </mxCell>
        <mxCell id="WIyWlLk6GJQsqaUBKTNV-3" value="User is logged in and wants to add a yes electric meter" style="rounded=1;whiteSpace=wrap;html=1;fontSize=12;glass=0;strokeWidth=1;shadow=0;" parent="WIyWlLk6GJQsqaUBKTNV-1" vertex="1">
          <mxGeometry x="202.5" y="100" width="120" height="50" as="geometry" />
        </mxCell>
        <mxCell id="9MLpdoG-Xq3LA8RY7R3_-12" style="edgeStyle=orthogonalEdgeStyle;rounded=0;orthogonalLoop=1;jettySize=auto;html=1;entryX=0.5;entryY=0;entryDx=0;entryDy=0;" edge="1" parent="WIyWlLk6GJQsqaUBKTNV-1" source="WIyWlLk6GJQsqaUBKTNV-10" target="9MLpdoG-Xq3LA8RY7R3_-5">
          <mxGeometry relative="1" as="geometry">
            <mxPoint x="277.5" y="280" as="targetPoint" />
            <Array as="points">
              <mxPoint x="262.5" y="250" />
            </Array>
          </mxGeometry>
        </mxCell>
        <mxCell id="9MLpdoG-Xq3LA8RY7R3_-13" style="edgeStyle=orthogonalEdgeStyle;rounded=0;orthogonalLoop=1;jettySize=auto;html=1;" edge="1" parent="WIyWlLk6GJQsqaUBKTNV-1" source="WIyWlLk6GJQsqaUBKTNV-10" target="9MLpdoG-Xq3LA8RY7R3_-4">
          <mxGeometry relative="1" as="geometry">
            <Array as="points">
              <mxPoint x="477.5" y="250" />
            </Array>
          </mxGeometry>
        </mxCell>
        <mxCell id="WIyWlLk6GJQsqaUBKTNV-10" value="Does workplace&amp;nbsp;&lt;div&gt;have any electric meters&lt;/div&gt;" style="rhombus;whiteSpace=wrap;html=1;shadow=0;fontFamily=Helvetica;fontSize=12;align=center;strokeWidth=1;spacing=6;spacingTop=-4;" parent="WIyWlLk6GJQsqaUBKTNV-1" vertex="1">
          <mxGeometry x="297.5" y="200" width="140" height="100" as="geometry" />
        </mxCell>
        <mxCell id="9MLpdoG-Xq3LA8RY7R3_-36" style="edgeStyle=orthogonalEdgeStyle;rounded=0;orthogonalLoop=1;jettySize=auto;html=1;entryX=0;entryY=0.5;entryDx=0;entryDy=0;" edge="1" parent="WIyWlLk6GJQsqaUBKTNV-1" source="9MLpdoG-Xq3LA8RY7R3_-0" target="WIyWlLk6GJQsqaUBKTNV-3">
          <mxGeometry relative="1" as="geometry" />
        </mxCell>
        <mxCell id="9MLpdoG-Xq3LA8RY7R3_-0" value="Start" style="ellipse;whiteSpace=wrap;html=1;" vertex="1" parent="WIyWlLk6GJQsqaUBKTNV-1">
          <mxGeometry x="351.5" y="40" width="90" height="50" as="geometry" />
        </mxCell>
        <mxCell id="9MLpdoG-Xq3LA8RY7R3_-39" style="edgeStyle=orthogonalEdgeStyle;rounded=0;orthogonalLoop=1;jettySize=auto;html=1;entryX=0;entryY=0.5;entryDx=0;entryDy=0;" edge="1" parent="WIyWlLk6GJQsqaUBKTNV-1" source="9MLpdoG-Xq3LA8RY7R3_-1" target="9MLpdoG-Xq3LA8RY7R3_-2">
          <mxGeometry relative="1" as="geometry" />
        </mxCell>
        <mxCell id="9MLpdoG-Xq3LA8RY7R3_-1" value="goes to workplace page" style="rounded=1;whiteSpace=wrap;html=1;fontSize=12;glass=0;strokeWidth=1;shadow=0;" vertex="1" parent="WIyWlLk6GJQsqaUBKTNV-1">
          <mxGeometry x="337.5" y="100" width="120" height="50" as="geometry" />
        </mxCell>
        <mxCell id="9MLpdoG-Xq3LA8RY7R3_-40" style="edgeStyle=orthogonalEdgeStyle;rounded=0;orthogonalLoop=1;jettySize=auto;html=1;entryX=0.5;entryY=0;entryDx=0;entryDy=0;" edge="1" parent="WIyWlLk6GJQsqaUBKTNV-1" source="9MLpdoG-Xq3LA8RY7R3_-2" target="WIyWlLk6GJQsqaUBKTNV-10">
          <mxGeometry relative="1" as="geometry">
            <Array as="points">
              <mxPoint x="542.5" y="170" />
              <mxPoint x="367.5" y="170" />
            </Array>
          </mxGeometry>
        </mxCell>
        <mxCell id="9MLpdoG-Xq3LA8RY7R3_-2" value="goes to workplace page" style="rounded=1;whiteSpace=wrap;html=1;fontSize=12;glass=0;strokeWidth=1;shadow=0;" vertex="1" parent="WIyWlLk6GJQsqaUBKTNV-1">
          <mxGeometry x="482.5" y="100" width="120" height="50" as="geometry" />
        </mxCell>
        <mxCell id="9MLpdoG-Xq3LA8RY7R3_-14" style="edgeStyle=orthogonalEdgeStyle;rounded=0;orthogonalLoop=1;jettySize=auto;html=1;" edge="1" parent="WIyWlLk6GJQsqaUBKTNV-1" source="9MLpdoG-Xq3LA8RY7R3_-4" target="9MLpdoG-Xq3LA8RY7R3_-6">
          <mxGeometry relative="1" as="geometry" />
        </mxCell>
        <mxCell id="9MLpdoG-Xq3LA8RY7R3_-4" value="Promt user to create first electric meter" style="rounded=1;whiteSpace=wrap;html=1;fontSize=12;glass=0;strokeWidth=1;shadow=0;" vertex="1" parent="WIyWlLk6GJQsqaUBKTNV-1">
          <mxGeometry x="412.5" y="310" width="120" height="50" as="geometry" />
        </mxCell>
        <mxCell id="9MLpdoG-Xq3LA8RY7R3_-15" style="edgeStyle=orthogonalEdgeStyle;rounded=0;orthogonalLoop=1;jettySize=auto;html=1;" edge="1" parent="WIyWlLk6GJQsqaUBKTNV-1" source="9MLpdoG-Xq3LA8RY7R3_-5" target="9MLpdoG-Xq3LA8RY7R3_-6">
          <mxGeometry relative="1" as="geometry" />
        </mxCell>
        <mxCell id="9MLpdoG-Xq3LA8RY7R3_-5" value="Display all electric meter" style="rounded=1;whiteSpace=wrap;html=1;fontSize=12;glass=0;strokeWidth=1;shadow=0;" vertex="1" parent="WIyWlLk6GJQsqaUBKTNV-1">
          <mxGeometry x="202.5" y="310" width="120" height="50" as="geometry" />
        </mxCell>
        <mxCell id="9MLpdoG-Xq3LA8RY7R3_-16" style="edgeStyle=orthogonalEdgeStyle;rounded=0;orthogonalLoop=1;jettySize=auto;html=1;" edge="1" parent="WIyWlLk6GJQsqaUBKTNV-1" source="9MLpdoG-Xq3LA8RY7R3_-6" target="9MLpdoG-Xq3LA8RY7R3_-7">
          <mxGeometry relative="1" as="geometry" />
        </mxCell>
        <mxCell id="9MLpdoG-Xq3LA8RY7R3_-6" value="Clicks on&lt;div&gt;&quot;create new meter&quot;&lt;/div&gt;" style="rounded=1;whiteSpace=wrap;html=1;fontSize=12;glass=0;strokeWidth=1;shadow=0;" vertex="1" parent="WIyWlLk6GJQsqaUBKTNV-1">
          <mxGeometry x="307.5" y="400" width="120" height="50" as="geometry" />
        </mxCell>
        <mxCell id="9MLpdoG-Xq3LA8RY7R3_-20" style="edgeStyle=orthogonalEdgeStyle;rounded=0;orthogonalLoop=1;jettySize=auto;html=1;" edge="1" parent="WIyWlLk6GJQsqaUBKTNV-1" source="9MLpdoG-Xq3LA8RY7R3_-7" target="9MLpdoG-Xq3LA8RY7R3_-17">
          <mxGeometry relative="1" as="geometry" />
        </mxCell>
        <mxCell id="9MLpdoG-Xq3LA8RY7R3_-7" value="Display dialog for creation for creating electric meter" style="rounded=1;whiteSpace=wrap;html=1;fontSize=12;glass=0;strokeWidth=1;shadow=0;" vertex="1" parent="WIyWlLk6GJQsqaUBKTNV-1">
          <mxGeometry x="307.5" y="480" width="120" height="50" as="geometry" />
        </mxCell>
        <mxCell id="9MLpdoG-Xq3LA8RY7R3_-21" style="edgeStyle=orthogonalEdgeStyle;rounded=0;orthogonalLoop=1;jettySize=auto;html=1;" edge="1" parent="WIyWlLk6GJQsqaUBKTNV-1" source="9MLpdoG-Xq3LA8RY7R3_-17" target="9MLpdoG-Xq3LA8RY7R3_-19">
          <mxGeometry relative="1" as="geometry" />
        </mxCell>
        <mxCell id="9MLpdoG-Xq3LA8RY7R3_-17" value="User inputs&amp;nbsp;&lt;div&gt;meter name,&lt;/div&gt;&lt;div&gt;meter description,&lt;/div&gt;&lt;div&gt;meter address&lt;/div&gt;" style="rounded=1;whiteSpace=wrap;html=1;fontSize=12;glass=0;strokeWidth=1;shadow=0;" vertex="1" parent="WIyWlLk6GJQsqaUBKTNV-1">
          <mxGeometry x="307.5" y="560" width="120" height="70" as="geometry" />
        </mxCell>
        <mxCell id="9MLpdoG-Xq3LA8RY7R3_-26" style="edgeStyle=orthogonalEdgeStyle;rounded=0;orthogonalLoop=1;jettySize=auto;html=1;entryX=0.5;entryY=1;entryDx=0;entryDy=0;" edge="1" parent="WIyWlLk6GJQsqaUBKTNV-1" source="9MLpdoG-Xq3LA8RY7R3_-19" target="9MLpdoG-Xq3LA8RY7R3_-23">
          <mxGeometry relative="1" as="geometry" />
        </mxCell>
        <mxCell id="9MLpdoG-Xq3LA8RY7R3_-27" value="No" style="edgeLabel;html=1;align=center;verticalAlign=middle;resizable=0;points=[];" vertex="1" connectable="0" parent="9MLpdoG-Xq3LA8RY7R3_-26">
          <mxGeometry x="-0.5849" y="-1" relative="1" as="geometry">
            <mxPoint as="offset" />
          </mxGeometry>
        </mxCell>
        <mxCell id="9MLpdoG-Xq3LA8RY7R3_-32" style="edgeStyle=orthogonalEdgeStyle;rounded=0;orthogonalLoop=1;jettySize=auto;html=1;" edge="1" parent="WIyWlLk6GJQsqaUBKTNV-1" source="9MLpdoG-Xq3LA8RY7R3_-19" target="9MLpdoG-Xq3LA8RY7R3_-28">
          <mxGeometry relative="1" as="geometry" />
        </mxCell>
        <mxCell id="9MLpdoG-Xq3LA8RY7R3_-34" value="Yes" style="edgeLabel;html=1;align=center;verticalAlign=middle;resizable=0;points=[];" vertex="1" connectable="0" parent="9MLpdoG-Xq3LA8RY7R3_-32">
          <mxGeometry x="0.4" relative="1" as="geometry">
            <mxPoint as="offset" />
          </mxGeometry>
        </mxCell>
        <mxCell id="9MLpdoG-Xq3LA8RY7R3_-19" value="Are inputs valid" style="rhombus;whiteSpace=wrap;html=1;shadow=0;fontFamily=Helvetica;fontSize=12;align=center;strokeWidth=1;spacing=6;spacingTop=-4;" vertex="1" parent="WIyWlLk6GJQsqaUBKTNV-1">
          <mxGeometry x="312.5" y="660" width="110" height="100" as="geometry" />
        </mxCell>
        <mxCell id="9MLpdoG-Xq3LA8RY7R3_-25" style="edgeStyle=orthogonalEdgeStyle;rounded=0;orthogonalLoop=1;jettySize=auto;html=1;entryX=0.5;entryY=0;entryDx=0;entryDy=0;" edge="1" parent="WIyWlLk6GJQsqaUBKTNV-1" source="9MLpdoG-Xq3LA8RY7R3_-23" target="9MLpdoG-Xq3LA8RY7R3_-17">
          <mxGeometry relative="1" as="geometry">
            <mxPoint x="367.5" y="540" as="targetPoint" />
            <Array as="points">
              <mxPoint x="501.5" y="540" />
              <mxPoint x="368.5" y="540" />
            </Array>
          </mxGeometry>
        </mxCell>
        <mxCell id="9MLpdoG-Xq3LA8RY7R3_-23" value="Mark incorrect&amp;nbsp;inputs&amp;nbsp;" style="rounded=1;whiteSpace=wrap;html=1;fontSize=12;glass=0;strokeWidth=1;shadow=0;" vertex="1" parent="WIyWlLk6GJQsqaUBKTNV-1">
          <mxGeometry x="441.5" y="580" width="120" height="50" as="geometry" />
        </mxCell>
        <mxCell id="9MLpdoG-Xq3LA8RY7R3_-35" style="edgeStyle=orthogonalEdgeStyle;rounded=0;orthogonalLoop=1;jettySize=auto;html=1;entryX=0.5;entryY=0;entryDx=0;entryDy=0;" edge="1" parent="WIyWlLk6GJQsqaUBKTNV-1" source="9MLpdoG-Xq3LA8RY7R3_-28" target="9MLpdoG-Xq3LA8RY7R3_-33">
          <mxGeometry relative="1" as="geometry" />
        </mxCell>
        <mxCell id="9MLpdoG-Xq3LA8RY7R3_-28" value="Send request to server" style="rounded=1;whiteSpace=wrap;html=1;fontSize=12;glass=0;strokeWidth=1;shadow=0;" vertex="1" parent="WIyWlLk6GJQsqaUBKTNV-1">
          <mxGeometry x="307.5" y="790" width="120" height="50" as="geometry" />
        </mxCell>
        <mxCell id="9MLpdoG-Xq3LA8RY7R3_-43" style="edgeStyle=orthogonalEdgeStyle;rounded=0;orthogonalLoop=1;jettySize=auto;html=1;entryX=0.5;entryY=1;entryDx=0;entryDy=0;" edge="1" parent="WIyWlLk6GJQsqaUBKTNV-1" source="9MLpdoG-Xq3LA8RY7R3_-33" target="9MLpdoG-Xq3LA8RY7R3_-41">
          <mxGeometry relative="1" as="geometry">
            <Array as="points">
              <mxPoint x="230.5" y="945" />
              <mxPoint x="230.5" y="750" />
            </Array>
          </mxGeometry>
        </mxCell>
        <mxCell id="9MLpdoG-Xq3LA8RY7R3_-44" value="Yes" style="edgeLabel;html=1;align=center;verticalAlign=middle;resizable=0;points=[];" vertex="1" connectable="0" parent="9MLpdoG-Xq3LA8RY7R3_-43">
          <mxGeometry x="0.3698" y="-1" relative="1" as="geometry">
            <mxPoint x="-1" y="-78" as="offset" />
          </mxGeometry>
        </mxCell>
        <mxCell id="9MLpdoG-Xq3LA8RY7R3_-45" value="Yes" style="edgeLabel;html=1;align=center;verticalAlign=middle;resizable=0;points=[];" vertex="1" connectable="0" parent="9MLpdoG-Xq3LA8RY7R3_-43">
          <mxGeometry x="-0.8745" y="-1" relative="1" as="geometry">
            <mxPoint as="offset" />
          </mxGeometry>
        </mxCell>
        <mxCell id="9MLpdoG-Xq3LA8RY7R3_-47" style="edgeStyle=orthogonalEdgeStyle;rounded=0;orthogonalLoop=1;jettySize=auto;html=1;entryX=0.5;entryY=0;entryDx=0;entryDy=0;" edge="1" parent="WIyWlLk6GJQsqaUBKTNV-1" source="9MLpdoG-Xq3LA8RY7R3_-33" target="9MLpdoG-Xq3LA8RY7R3_-46">
          <mxGeometry relative="1" as="geometry" />
        </mxCell>
        <mxCell id="9MLpdoG-Xq3LA8RY7R3_-51" value="No" style="edgeLabel;html=1;align=center;verticalAlign=middle;resizable=0;points=[];" vertex="1" connectable="0" parent="9MLpdoG-Xq3LA8RY7R3_-47">
          <mxGeometry x="-0.64" y="1" relative="1" as="geometry">
            <mxPoint as="offset" />
          </mxGeometry>
        </mxCell>
        <mxCell id="9MLpdoG-Xq3LA8RY7R3_-33" value="Is there а meter whit the same name&lt;div&gt;or address?&lt;/div&gt;" style="rhombus;whiteSpace=wrap;html=1;shadow=0;fontFamily=Helvetica;fontSize=12;align=center;strokeWidth=1;spacing=6;spacingTop=-4;" vertex="1" parent="WIyWlLk6GJQsqaUBKTNV-1">
          <mxGeometry x="290" y="870" width="155" height="150" as="geometry" />
        </mxCell>
        <mxCell id="9MLpdoG-Xq3LA8RY7R3_-42" style="edgeStyle=orthogonalEdgeStyle;rounded=0;orthogonalLoop=1;jettySize=auto;html=1;entryX=0.5;entryY=0;entryDx=0;entryDy=0;" edge="1" parent="WIyWlLk6GJQsqaUBKTNV-1" source="9MLpdoG-Xq3LA8RY7R3_-41" target="9MLpdoG-Xq3LA8RY7R3_-17">
          <mxGeometry relative="1" as="geometry">
            <mxPoint x="367.5" y="540" as="targetPoint" />
            <Array as="points">
              <mxPoint x="230.5" y="540" />
              <mxPoint x="367.5" y="540" />
            </Array>
          </mxGeometry>
        </mxCell>
        <mxCell id="9MLpdoG-Xq3LA8RY7R3_-41" value="Display that electric meter exists" style="rounded=1;whiteSpace=wrap;html=1;fontSize=12;glass=0;strokeWidth=1;shadow=0;" vertex="1" parent="WIyWlLk6GJQsqaUBKTNV-1">
          <mxGeometry x="170" y="580" width="120" height="50" as="geometry" />
        </mxCell>
        <mxCell id="9MLpdoG-Xq3LA8RY7R3_-49" style="edgeStyle=orthogonalEdgeStyle;rounded=0;orthogonalLoop=1;jettySize=auto;html=1;" edge="1" parent="WIyWlLk6GJQsqaUBKTNV-1" source="9MLpdoG-Xq3LA8RY7R3_-46" target="9MLpdoG-Xq3LA8RY7R3_-48">
          <mxGeometry relative="1" as="geometry" />
        </mxCell>
        <mxCell id="9MLpdoG-Xq3LA8RY7R3_-46" value="Display that meter has been created" style="rounded=1;whiteSpace=wrap;html=1;fontSize=12;glass=0;strokeWidth=1;shadow=0;" vertex="1" parent="WIyWlLk6GJQsqaUBKTNV-1">
          <mxGeometry x="307.5" y="1050" width="120" height="50" as="geometry" />
        </mxCell>
        <mxCell id="9MLpdoG-Xq3LA8RY7R3_-48" value="End" style="ellipse;whiteSpace=wrap;html=1;" vertex="1" parent="WIyWlLk6GJQsqaUBKTNV-1">
          <mxGeometry x="328.75" y="1110" width="77.5" height="39" as="geometry" />
        </mxCell>
      </root>
    </mxGraphModel>
  </diagram>
</mxfile>
